<?xml version="1.0" encoding="iso-8859-1"?>
<!-- Generator: Adobe Illustrator 16.0.0, SVG Export Plug-In . SVG Version: 6.00 Build 0)  -->
<!DOCTYPE svg PUBLIC "-//W3C//DTD SVG 1.1//EN" "http://www.w3.org/Graphics/SVG/1.1/DTD/svg11.dtd">
<svg version="1.1" id="Capa_1" xmlns="http://www.w3.org/2000/svg" xmlns:xlink="http://www.w3.org/1999/xlink" x="0px" y="0px"
	 width="64.738px" height="64.738px" viewBox="0 0 64.738 64.738" style="enable-background:new 0 0 64.738 64.738;"
	 xml:space="preserve">
<g>
	<g>
		<g>
			<path d="M24.5,49.333C10.991,49.333,0,38.344,0,24.834s10.991-24.5,24.5-24.5c13.51,0,24.5,10.99,24.5,24.5
				C49.001,38.344,38.012,49.333,24.5,49.333z M24.5,4.334C13.196,4.334,4,13.53,4,24.834c0,11.305,9.196,20.499,20.5,20.499
				c11.303,0,20.5-9.194,20.5-20.499C45,13.53,35.805,4.334,24.5,4.334z"/>
		</g>
		<g>
			<path d="M10.017,17.25c-0.174,0-0.35-0.045-0.51-0.141c-0.475-0.281-0.631-0.896-0.349-1.37c3.201-5.39,9.08-8.738,15.342-8.738
				c0.553,0,1,0.447,1,1c0,0.553-0.447,1-1,1c-5.56,0-10.779,2.974-13.622,7.76C10.691,17.076,10.359,17.25,10.017,17.25z"/>
		</g>
		<g>
			<path d="M7.667,25.248c-0.552,0-1-0.447-1-1c0-1.42,0.169-2.211,0.468-3.487c0.126-0.538,0.664-0.87,1.201-0.746
				c0.538,0.126,0.872,0.663,0.746,1.201c-0.28,1.198-0.415,1.827-0.415,3.032C8.667,24.801,8.22,25.248,7.667,25.248z"/>
		</g>
		<g>
			<path d="M58.739,64.404c-1.604,0-3.108-0.623-4.244-1.756L38.354,46.505c-1.252-1.252-1.664-2.799-1.161-4.356
				c0.409-1.269,1.37-2.338,2.161-3.127c1.173-1.172,2.613-2.371,4.423-2.371c0.771,0,1.93,0.238,3.063,1.371l16.143,16.141
				c1.133,1.135,1.756,2.641,1.756,4.244c0,1.602-0.623,3.109-1.756,4.242C61.848,63.781,60.342,64.404,58.739,64.404z
				 M40.982,43.445c0.007,0,0.06,0.094,0.199,0.232L57.323,59.82c0.756,0.754,2.073,0.754,2.83,0
				c0.377-0.379,0.584-0.881,0.584-1.414c0-0.535-0.207-1.037-0.586-1.416L44.012,40.85c-0.144-0.144-0.236-0.195-0.263-0.203
				c-0.014,0.008-0.426,0.061-1.565,1.203C41.04,42.99,40.985,43.402,40.982,43.445L40.982,43.445z"/>
		</g>
	</g>
</g>
<g>
</g>
<g>
</g>
<g>
</g>
<g>
</g>
<g>
</g>
<g>
</g>
<g>
</g>
<g>
</g>
<g>
</g>
<g>
</g>
<g>
</g>
<g>
</g>
<g>
</g>
<g>
</g>
<g>
</g>
</svg>
